<svg width="16" height="15" viewBox="0 0 16 15" fill="none" xmlns="http://www.w3.org/2000/svg">
<path d="M3.58513 11.7218V12.4999C3.58513 13.1906 4.14452 13.75 4.83515 13.75H10.1664C10.8571 13.75 11.4165 13.1906 11.4165 12.4999V7.28744L10.1477 8.55308C9.90392 8.79997 9.50705 8.79997 9.26328 8.55308C9.01952 8.30932 9.01952 7.91557 9.26328 7.67183L11.6009 5.33738C11.8447 5.0905 12.2384 5.0905 12.4822 5.33738L14.8166 7.67183C15.0635 7.91559 15.0635 8.30934 14.8166 8.55308C14.5729 8.79997 14.1791 8.79997 13.9354 8.55308L12.6666 7.28744V12.4999C12.6666 13.8812 11.5478 15 10.1665 15H4.83525C3.45398 15 2.33521 13.8812 2.33521 12.4999V11.7218C2.33521 11.378 2.61645 11.0968 2.96022 11.0968C3.3071 11.0968 3.58523 11.378 3.58523 11.7218H3.58513Z" fill="#6E7275"/>
<path d="M5.73844 7.32815L3.404 9.66259C3.15711 9.90947 2.76337 9.90947 2.5196 9.66259L0.185163 7.32815C-0.0617211 7.08438 -0.0617211 6.69063 0.185163 6.44689C0.428927 6.20001 0.822674 6.20001 1.06642 6.44689L2.3352 7.71253V2.50004C2.3352 1.11878 3.45398 0 4.83524 0H10.1665C11.5478 0 12.6666 1.11878 12.6666 2.50004V3.27818C12.6666 3.62194 12.3853 3.90319 12.0416 3.90319C11.6947 3.90319 11.4166 3.62194 11.4166 3.27818V2.50004C11.4166 1.80941 10.8572 1.25002 10.1665 1.25002H4.83524C4.14461 1.25002 3.58522 1.80941 3.58522 2.50004V7.71253L4.854 6.44689C5.09777 6.20001 5.49152 6.20001 5.7384 6.44689C5.98216 6.69065 5.98216 7.0844 5.7384 7.32815H5.73844Z" fill="#6E7275"/>
</svg>
