<svg width="25" height="32" viewBox="0 0 25 32" fill="none" xmlns="http://www.w3.org/2000/svg">
<path d="M3.86254 2.77217H16.6361V6.67683C16.6361 7.96206 17.6859 9.0282 18.9624 9.0282H22.8143V28.1053V28.1056C22.8156 28.7435 22.3333 29.2293 21.7091 29.2293H3.86277C3.23878 29.2293 2.75609 28.7436 2.75609 28.1038V3.89613C2.75609 3.25652 3.23834 2.77217 3.86254 2.77217ZM3.86254 0.85C2.20524 0.85 0.85 2.22637 0.85 3.89617V28.1038C0.85 29.7736 2.20524 31.15 3.86254 31.15H21.7089C23.3662 31.15 24.7214 29.7736 24.7214 28.1038V8.06641C24.7214 7.83113 24.6361 7.60413 24.4807 7.4289C24.4806 7.42882 24.4805 7.42873 24.4804 7.42864L18.9892 1.17338C18.8087 0.967591 18.5494 0.850148 18.2759 0.850148L3.86254 0.85ZM18.542 6.6769V3.56319L21.6517 7.10615H18.9624C18.7188 7.10615 18.542 6.93175 18.542 6.6769Z" fill="white" stroke="white" stroke-width="0.3"/>
</svg>
