<svg width="25" height="30" viewBox="0 0 25 30" fill="none" xmlns="http://www.w3.org/2000/svg">
<path d="M18.2857 15.238C18.2857 17.2693 15.238 17.2693 15.238 15.238C15.238 13.2068 18.2857 13.2068 18.2857 15.238Z" fill="white"/>
<path d="M20.5715 6.09524H19.4287V3.80952C19.4287 2.79912 19.0269 1.83036 18.3126 1.11608C17.5983 0.401791 16.6295 0 15.6191 0H7.23818C4.71288 0 2.66675 2.04613 2.66675 4.57143C2.66675 7.09672 4.71288 9.14286 7.23818 9.14286H20.5715C20.7739 9.14286 20.9674 9.22322 21.1102 9.36607C21.2531 9.50893 21.3334 9.70238 21.3334 9.90478V20.5714C21.3334 20.7738 21.2531 20.9673 21.1102 21.1101C20.9674 21.253 20.7739 21.3334 20.5715 21.3334H17.5239C16.6816 21.3334 16.0001 22.0149 16.0001 22.8572C16.0001 23.6994 16.6816 24.381 17.5239 24.381H20.5715C21.5819 24.381 22.5507 23.9792 23.265 23.2649C23.9792 22.5506 24.381 21.5819 24.381 20.5715V9.90479C24.381 8.89439 23.9792 7.92563 23.265 7.21134C22.5507 6.49706 21.5819 6.09527 20.5715 6.09527V6.09524ZM16.381 6.09524H7.3037C6.50012 6.11161 5.8141 5.51787 5.7144 4.72023V4.57142V4.42261C5.81411 3.62498 6.50012 3.03126 7.3037 3.0476H15.6191C15.8215 3.0476 16.015 3.12796 16.1578 3.27082C16.3007 3.41368 16.381 3.60713 16.381 3.80952L16.381 6.09524Z" fill="white"/>
<path d="M5.67454 30H5.84781C6.19434 30 6.36761 29.8265 6.54088 29.6529L13.2986 20.1068C13.4719 19.9333 13.4719 19.7597 13.2986 19.5862C13.1254 19.4126 12.9521 19.4126 12.6055 19.4126H8.44711V11.9493C8.44711 11.7757 8.27384 11.4286 7.75403 11.4286C7.4075 11.4286 7.06096 11.4286 6.88769 11.7757L0.129951 21.3218C-0.0433171 21.4953 -0.0433171 21.6689 0.129951 21.8424C0.30322 22.016 0.476488 22.016 0.823025 22.016H4.98146V29.3055C4.98146 29.8262 5.328 29.9997 5.67454 29.9997V30Z" fill="white"/>
</svg>
