<svg width="5" height="18" viewBox="0 0 5 18" fill="none" xmlns="http://www.w3.org/2000/svg">
<path d="M4.33378 15.9902C4.33378 16.7893 3.68559 17.4375 2.88576 17.4375C2.08594 17.4375 1.43848 16.79 1.43848 15.9902C1.43848 15.1904 2.08594 14.5422 2.88576 14.5422C3.68557 14.5429 4.33378 15.1904 4.33378 15.9902Z" fill="white"/>
<path d="M4.87485 2.48731C4.83896 2.07569 4.68075 1.68824 4.43906 1.3711C4.0699 0.88476 3.50594 0.56177 2.88632 0.562501C2.285 0.561769 1.73641 0.865728 1.36726 1.32715C1.10652 1.65235 0.935127 2.05664 0.897777 2.48658C0.887523 2.60011 0.888988 2.72315 0.897777 2.83376L1.72102 12.2638C1.74592 12.5487 1.87117 12.7999 2.05794 12.9867C2.2718 13.2005 2.56624 13.3309 2.88632 13.3302C3.17417 13.3309 3.44222 13.2254 3.64804 13.0482C3.87143 12.8563 4.02378 12.5802 4.0516 12.263L4.87485 2.83303C4.88364 2.7239 4.88437 2.60085 4.87485 2.48731Z" fill="white"/>
</svg>
