<svg width="44" height="42" viewBox="0 0 44 42" fill="none" xmlns="http://www.w3.org/2000/svg">
<path d="M12.5007 42H12.0015C9.00147 42 6.50066 40.7508 4.25067 38.5008C2.25147 36.5016 0.999865 33.75 0.751465 30.75C0.751465 27.75 1.75226 25.0008 3.75146 22.9992L11.9991 15C13.9983 13.0008 16.7499 12 19.7499 12C22.7499 12 25.2507 13.2492 27.5007 15.4992C28.5015 16.5 28.5015 18 27.5007 18.9984C26.4999 19.9992 24.9999 19.9992 24.0015 18.9984C22.7523 17.7492 21.2523 16.9992 19.5015 16.9992C18.0015 16.9992 16.5015 17.4984 15.5007 18.4992L7.25066 26.7492C6.24986 27.75 5.75066 29.25 5.75066 30.75C5.75066 32.25 6.50066 34.0008 7.74986 35.25C8.99906 36.4992 10.4991 37.2492 12.2499 37.2492C13.7499 37.2492 15.2499 36.75 16.2507 35.7492L19.5015 32.4984C20.5023 31.4976 22.0023 31.4976 23.0007 32.4984C24.0015 33.4992 24.0015 34.9992 23.0007 35.9976L19.7499 39.2484C17.7507 40.9992 15.2499 41.9999 12.5007 41.9999L12.5007 42Z" fill="#BFFA00"/>
<path d="M24.7492 30H24.2499C21.2499 30 18.7491 28.7508 16.4991 26.5008C15.4983 25.5 15.4983 24 16.4991 23.0016C17.4999 22.0008 18.9999 22.0008 19.9983 23.0016C21.2475 24.2508 22.7475 25.0008 24.4983 25.0008C25.9983 25.0008 27.4983 24.5016 28.4991 23.5008L36.7491 15.2508C37.7499 14.25 38.2491 12.75 38.2491 11.25C38.2491 9.75 37.4991 7.9992 36.2499 6.75C35.0007 5.5008 33.5007 4.7508 31.7499 4.7508C30.2499 4.7508 28.7499 5.25002 27.7491 6.2508L24.5007 9.75C23.4999 10.7508 21.9999 10.7508 21.0015 9.75C20.0007 8.7492 20.0007 7.2492 21.0015 6.2508L24.2523 3C26.2515 1.0008 29.0031 0 32.0031 0C35.0031 0 37.5039 1.2492 39.7539 3.4992C41.7531 5.4984 43.0047 8.25 43.2531 11.25C43.2531 14.25 42.2523 16.9992 40.2531 19.0008L32.0007 27C29.9991 28.7508 27.5007 30 24.7491 30H24.7492Z" fill="#BFFA00"/>
</svg>
