<svg width="42" height="42" viewBox="0 0 42 42" fill="none" xmlns="http://www.w3.org/2000/svg">
<path d="M33.5 40.2695C33.5 41.1328 32.8027 41.832 31.9394 41.8359H10.0644C6.90233 41.832 4.33793 39.2676 4.33593 36.1054V14.2304C4.31054 13.8007 4.46484 13.3789 4.75976 13.0664C5.05664 12.7539 5.46681 12.5761 5.89841 12.5761C6.3281 12.5761 6.74021 12.7539 7.03511 13.0664C7.33003 13.3789 7.48433 13.8008 7.46089 14.2304V36.1054C7.46089 37.5429 8.62689 38.7109 10.0644 38.7109H31.9394C32.3535 38.7109 32.7499 38.8749 33.0429 39.166C33.3359 39.4589 33.4999 39.8554 33.4999 40.2695L33.5 40.2695ZM8.49998 1.73052C8.49998 0.865274 9.20113 0.164124 10.0644 0.164124H24.9999C26.5195 0.164124 27.9784 0.767623 29.0507 1.84577L35.9997 8.77927C37.0759 9.85152 37.6794 11.3105 37.6755 12.8301V27.7696C37.699 28.1993 37.5447 28.6211 37.2498 28.9336C36.9548 29.2461 36.5427 29.4239 36.1131 29.4239C35.6814 29.4239 35.2713 29.2461 34.9744 28.9336C34.6795 28.6211 34.5252 28.1992 34.5506 27.7696V14.7696H26.7301C24.7184 14.7676 23.0875 13.1368 23.0855 11.125V3.28902H10.0855C9.66755 3.29488 9.26522 3.13277 8.96637 2.8398C8.6695 2.54683 8.50153 2.1484 8.49958 1.7304L8.49998 1.73052ZM26.8455 4.05472C26.656 3.88285 26.4412 3.73832 26.2107 3.63089V11.1309C26.2107 11.2618 26.2615 11.3907 26.3572 11.4844C26.451 11.5782 26.5779 11.6309 26.7107 11.6309H34.2047C34.0954 11.4004 33.9528 11.1875 33.779 11L26.8455 4.05472ZM41.375 39.1642L2.83598 0.625223C2.21683 0.0705231 1.27153 0.0959234 0.683634 0.683818C0.095734 1.27172 0.0703338 2.21702 0.625039 2.83617L39.164 41.3752C39.7832 41.9299 40.7285 41.9045 41.3164 41.3166C41.9043 40.7287 41.9297 39.7834 41.375 39.1642Z" fill="#BFFA00"/>
</svg>
