<svg width="20" height="20" viewBox="0 0 20 20" fill="none" xmlns="http://www.w3.org/2000/svg">
<path d="M17.8101 3.28149C17.8101 5.15649 14.9976 5.15649 14.9976 3.28149C14.9976 1.40649 17.8101 1.40649 17.8101 3.28149Z" fill="black"/>
<path d="M18.5573 6.87518H18.5231C18.1447 6.88006 17.7895 7.05707 17.5563 7.35368C17.3231 7.65153 17.2377 8.03849 17.3231 8.40593C17.8053 10.6227 17.2572 12.9384 15.8351 14.7047C14.4118 16.471 12.2657 17.4989 9.99762 17.5001C8.85627 17.5001 7.72955 17.2352 6.70668 16.7286C6.49672 16.6212 6.26477 16.565 6.02918 16.5626H5.98157C5.84608 16.5626 5.71058 16.5809 5.57873 16.6187L2.49767 17.5001L3.37901 14.4153C3.41685 14.2847 3.43516 14.1492 3.43516 14.0125V13.9686C3.43272 13.733 3.37657 13.501 3.26915 13.2911C2.6539 12.0496 2.39877 10.6604 2.53184 9.28106C2.70762 7.52081 3.49865 5.87888 4.76327 4.64231C6.02915 3.40575 7.6893 2.65378 9.45452 2.51828C9.63519 2.49997 9.81709 2.49997 9.99774 2.49997C10.4567 2.49997 10.9145 2.54148 11.3661 2.62448C11.725 2.68918 12.0937 2.5903 12.3732 2.35593C12.6516 2.12033 12.8127 1.77365 12.8102 1.4099V1.38182C12.8054 0.781228 12.3745 0.270978 11.7849 0.162353C11.1953 0.0537091 10.5971 0 9.99774 0C9.75726 0 9.51677 0 9.2763 0.0244141C6.92524 0.212401 4.71443 1.21704 3.02881 2.86376C1.34181 4.51169 0.2859 6.69813 0.0441816 9.04407C-0.118171 10.7604 0.168694 12.49 0.875494 14.0625L0.116213 16.7248C-0.0949686 17.4243 -0.000975057 18.1799 0.376222 18.8062C0.967034 19.7547 2.1145 20.1965 3.18872 19.8877L5.93531 19.1223C7.21094 19.7009 8.59644 20 9.99781 20C10.3103 20 10.6228 20 10.9536 19.9536C13.8027 19.6802 16.398 18.1995 18.0824 15.8861C19.7669 13.5729 20.381 10.648 19.7669 7.85268C19.64 7.28506 19.1383 6.87977 18.5572 6.8749L18.5573 6.87518Z" fill="black"/>
</svg>
