<svg width="38" height="42" viewBox="0 0 38 42" fill="none" xmlns="http://www.w3.org/2000/svg">
<path d="M37.2374 18.6187C37.2374 8.35767 28.8784 0 18.6187 0C8.359 0 0 8.35723 0 18.6187C0 22.8648 1.37162 26.845 3.98005 30.1617C4.6434 31.0013 5.88199 31.1343 6.72151 30.4709C7.56104 29.8076 7.69406 28.569 7.03073 27.7295C4.95261 25.121 3.8902 21.9805 3.8902 18.6187C3.8902 10.5255 10.4785 3.93717 18.5717 3.93717C26.665 3.93717 33.2533 10.5255 33.2533 18.6187C33.2533 26.5337 26.9741 32.946 19.19 33.3002V30.0716C19.19 28.8779 17.8633 28.1265 16.8458 28.7899L8.88924 34.0068C7.95985 34.6252 7.95985 35.9519 8.88924 36.5272L16.8945 41.7459C17.9119 42.4092 19.2386 41.701 19.2386 40.4641V37.1924C29.2321 36.8814 37.2369 28.6569 37.2369 18.6188L37.2374 18.6187Z" fill="#BFFA00"/>
<path d="M18.6189 8.22632C17.5583 8.22632 16.6738 9.11078 16.6738 10.1714V18.6189C16.6738 19.3703 17.1161 20.0336 17.7794 20.3878L23.5735 23.2623C23.8395 23.3953 24.1487 23.4834 24.4579 23.4834C25.1662 23.4834 25.8727 23.0861 26.2268 22.3778C26.714 21.4053 26.3149 20.2116 25.3424 19.7694L20.6539 17.4252V10.1718C20.5641 9.11113 19.6796 8.22632 18.6189 8.22632Z" fill="#BFFA00"/>
</svg>
