<svg width="24" height="24" viewBox="0 0 24 24" fill="none" xmlns="http://www.w3.org/2000/svg">
<rect width="24" height="24" rx="5" fill="#BFFA00"/>
<path d="M7.8 13.8C8.1077 13.8 8.3613 14.0316 8.39596 14.33L8.4 14.4V15.6H9.6L9.66997 15.604C9.96838 15.6387 10.2 15.8923 10.2 16.2C10.2 16.5077 9.96838 16.7613 9.66997 16.796L9.6 16.8H8.4L8.31044 16.7967C7.72057 16.7532 7.24928 16.2833 7.20363 15.694L7.2 15.6V14.4L7.20404 14.33C7.2387 14.0316 7.4923 13.8 7.8 13.8ZM16.2 13.8C16.5077 13.8 16.7613 14.0316 16.796 14.33L16.8 14.4V15.6C16.8 16.2326 16.3105 16.7509 15.6896 16.7967L15.6 16.8H14.4C14.0686 16.8 13.8 16.5314 13.8 16.2C13.8 15.8923 14.0316 15.6387 14.33 15.604L14.4 15.6H15.6V14.4C15.6 14.0686 15.8686 13.8 16.2 13.8ZM16.8 11.4C17.1314 11.4 17.4 11.6686 17.4 12C17.4 12.3314 17.1314 12.6 16.8 12.6H7.2C6.86863 12.6 6.6 12.3314 6.6 12C6.6 11.6686 6.86863 11.4 7.2 11.4H16.8ZM9.6 7.20001C9.93137 7.20001 10.2 7.46864 10.2 7.80001C10.2 8.10771 9.96838 8.36132 9.66997 8.39598L9.6 8.40001H8.4V9.60001C8.4 9.93138 8.13137 10.2 7.8 10.2C7.4923 10.2 7.2387 9.96839 7.20404 9.66998L7.2 9.60001V8.40001C7.2 7.7674 7.68953 7.24911 8.31044 7.2033L8.4 7.20001H9.6ZM15.6 7.20001L15.6896 7.2033C16.2794 7.24682 16.7507 7.71675 16.7964 8.30602L16.8 8.40001V9.60001L16.796 9.66998C16.7613 9.96839 16.5077 10.2 16.2 10.2C15.8923 10.2 15.6387 9.96839 15.604 9.66998L15.6 9.60001V8.40001H14.4L14.33 8.39598C14.0316 8.36132 13.8 8.10771 13.8 7.80001C13.8 7.49231 14.0316 7.23871 14.33 7.20405L14.4 7.20001H15.6Z" fill="#21252A"/>
</svg>
